<?xml version="1.0" encoding="utf-8"?>
<!-- Generator: Adobe Illustrator 26.0.3, SVG Export Plug-In . SVG Version: 6.00 Build 0)  -->
<svg version="1.1" id="Layer_1" xmlns="http://www.w3.org/2000/svg" xmlns:xlink="http://www.w3.org/1999/xlink" x="0px" y="0px"
	 viewBox="0 0 1000 1000" style="enable-background:new 0 0 1000 1000;" xml:space="preserve">
<style type="text/css">
	.st0{fill:none;}
	.st1{fill:#FFFFFF;}
	.st2{fill:#1E5673;}
</style>
<rect id="background" class="st0" width="1000" height="1000"/>
<g id="d.dFill">
	<path class="st1" d="M189.55,163.42c-78.98,0-138.62,61.25-138.62,261.12S103.31,676.8,177.46,676.8
		c53.19,0,86.23-37.07,101.55-82.21l4.84,0.81c0,10.48-0.81,20.95-0.81,32.24c0,16.92-0.81,29.01-0.81,43.52h108
		c-1.61-70.92-1.61-153.13-1.61-268.38c0-161.19,0-263.54,1.61-356.22h-108.8c1.61,32.24,1.61,60.45,1.61,97.52
		c0,25.79,0,46.74,0.81,73.34h-2.42C262.89,181.95,234.68,163.42,189.55,163.42z"/>
	<path class="st1" d="M719.82,163.42c-78.98,0-138.62,61.25-138.62,261.12S633.59,676.8,707.73,676.8
		c53.19,0,86.23-37.07,101.55-82.21l4.84,0.81c0,10.48-0.81,20.95-0.81,32.24c0,16.92-0.81,29.01-0.81,43.52h108
		c-1.61-70.92-1.61-153.13-1.61-268.38c0-161.19,0-263.54,1.61-356.22H811.7c1.61,32.24,1.61,60.45,1.61,97.52
		c0,25.79,0,46.74,0.81,73.34h-2.42C793.16,181.95,764.95,163.42,719.82,163.42z"/>
</g>
<g id="BrowserShape">
	<path class="st2" d="M337.51,0.01C150.98,0.01-0.23,151.22-0.23,337.75v374.76h1000V0.01H337.51z M390.23,671.16h-108
		c0-14.51,0.81-26.6,0.81-43.52c0-11.28,0.81-21.76,0.81-32.24l-4.84-0.81c-15.31,45.13-48.36,82.21-101.55,82.21
		c-74.15,0-126.53-52.39-126.53-252.26s59.64-261.12,138.62-261.12c45.13,0,73.34,18.54,91.88,54h2.42
		c-0.81-26.6-0.81-47.55-0.81-73.34c0-37.07,0-65.28-1.61-97.52h108.8c-1.61,92.68-1.61,195.04-1.61,356.22
		C388.61,518.03,388.61,600.23,390.23,671.16z M920.5,671.16h-108c0-14.51,0.81-26.6,0.81-43.52c0-11.28,0.81-21.76,0.81-32.24
		l-4.84-0.81c-15.31,45.13-48.36,82.21-101.55,82.21c-74.15,0-126.53-52.39-126.53-252.26s59.64-261.12,138.62-261.12
		c45.13,0,73.34,18.54,91.88,54h2.42c-0.81-26.6-0.81-47.55-0.81-73.34c0-37.07,0-65.28-1.61-97.52h108.8
		c-1.61,92.68-1.61,195.04-1.61,356.22C918.89,518.03,918.89,600.23,920.5,671.16z"/>
	<path class="st2" d="M681.94,424.54c0,137.81,24.18,165.22,62.86,165.22s69.31-26.6,69.31-95.1V267.38
		c-16.12-8.87-38.68-14.51-62.06-14.51C706.12,252.88,681.94,282.7,681.94,424.54z"/>
	<path class="st2" d="M151.67,424.54c0,137.81,24.18,165.22,62.86,165.22s69.31-26.6,69.31-95.1V267.38
		c-16.12-8.87-38.68-14.51-62.06-14.51C175.85,252.88,151.67,282.7,151.67,424.54z"/>
</g>
<g id="Eraser">
	<path class="st2" d="M710.6,931.44l-183.37,66.74c-15.57,5.67-32.78-2.36-38.45-17.93l-61.66-169.4l239.75-87.26l61.66,169.4
		C734.2,908.56,726.17,925.78,710.6,931.44z"/>
	<path class="st1" d="M562.46,632.68c3.61-8.77-81.62-61.14-87.21-58.4s-33.47,94.3-26.57,99.81
		C455.58,679.6,558.85,641.45,562.46,632.68z"/>
</g>
</svg>
