<svg id="Group_1" data-name="Group 1" xmlns="http://www.w3.org/2000/svg" width="64" height="64" viewBox="0 0 64 64">
                        <g id="Rectangle_5" data-name="Rectangle 5" fill="#fff" stroke="#000" stroke-width="5">
                          <rect width="64" height="64" rx="20" stroke="none"/>
                          <rect x="2.5" y="2.5" width="59" height="59" rx="17.5" fill="none"/>
                        </g>
                        <path id="Icon_awesome-ruler" data-name="Icon awesome-ruler" d="M62.292,18.415l-7.8-15.5A2.916,2.916,0,0,0,50.23,1.6L43.469,6.076l5.85,11.63a.971.971,0,0,1-.284,1.224l-1.352.892a.725.725,0,0,1-1.068-.332L40.764,7.871,35.356,11.45l2.734,5.421a.971.971,0,0,1-.284,1.224l-1.352.892a.725.725,0,0,1-1.068-.332l-2.734-5.409-5.409,3.579,5.86,11.63a.975.975,0,0,1-.284,1.224l-1.352.892a.725.725,0,0,1-1.068-.332l-5.85-11.63-5.409,3.579,2.734,5.421a.971.971,0,0,1-.284,1.224l-1.352.892a.725.725,0,0,1-1.068-.332l-2.734-5.432-5.409,3.579,5.85,11.63a.975.975,0,0,1-.284,1.224l-1.352.892a.725.725,0,0,1-1.068-.332l-5.85-11.6L1.56,33.83A3.891,3.891,0,0,0,.413,38.725l7.8,15.507a2.916,2.916,0,0,0,4.262,1.315l48.68-32.237A3.885,3.885,0,0,0,62.292,18.415Z" transform="translate(0.516 3.263)"/>
                      </svg>