<svg id="Group_3" data-name="Group 3" xmlns="http://www.w3.org/2000/svg" width="64" height="64" viewBox="0 0 64 64">
                        <g id="Rectangle_1" data-name="Rectangle 1" transform="translate(0 0.342)" fill="#fff" stroke="#000" stroke-width="5">
                          <rect width="64" height="63.658" rx="20" stroke="none"/>
                          <rect x="2.5" y="2.5" width="59" height="58.658" rx="17.5" fill="none"/>
                        </g>
                        <path id="Icon_awesome-pencil-alt" data-name="Icon awesome-pencil-alt" d="M61.866,17.729l-5.728,5.753a1.488,1.488,0,0,1-2.112,0L40.233,9.63a1.5,1.5,0,0,1,0-2.121l5.728-5.753a5.959,5.959,0,0,1,8.437,0l7.468,7.5A6,6,0,0,1,61.866,17.729ZM35.312,12.45,2.683,45.221.048,60.384A2.992,2.992,0,0,0,3.5,63.853l15.1-2.658L51.23,28.424a1.5,1.5,0,0,0,0-2.121L37.437,12.45a1.5,1.5,0,0,0-2.125,0ZM15.419,42.413a1.745,1.745,0,0,1,0-2.471L34.554,20.724a1.727,1.727,0,0,1,2.46,0,1.745,1.745,0,0,1,0,2.471L17.879,42.413a1.727,1.727,0,0,1-2.46,0Zm-4.486,10.5H16.9v4.53l-8.015,1.41L5.019,54.968l1.4-8.049h4.511Z" transform="translate(-0.002 -0.005)"/>
                      </svg>