 <svg id="Swirl_selector" data-name="Swirl selector" xmlns="http://www.w3.org/2000/svg" width="96" height="200" viewBox="0 0 96 200">
                        <g id="Swirl_selector-2" data-name="Swirl selector" opacity="0.85">
                          <path id="Path_1" data-name="Path 1" d="M20.72,121.655c-.408-.768-.823-1.543-1.21-2.325a10.789,10.789,0,0,1,.408,1.278A2.631,2.631,0,0,0,20.72,121.655Z" transform="translate(-1.031 40.954)" fill="#c62b70"/>
                          <path id="Path_2" data-name="Path 2" d="M17.721,115.775l-.2-.415L17.3,115Z" transform="translate(-5.538 38.305)" fill="#c62b70"/>
                          <path id="Path_3" data-name="Path 3" d="M14.82,110.21a16.042,16.042,0,0,0,1.006,2.087A20.781,20.781,0,0,0,14.82,110.21Z" transform="translate(-4.744 37.652)" fill="#c62b70"/>
                          <path id="Path_4" data-name="Path 4" d="M16.7,114.531c-.041-.292,0-.462.265-.075h0l-.68-1.2A10.2,10.2,0,0,1,16.7,114.531Z" transform="translate(-5.215 38.088)" fill="#c62b70"/>
                          <path id="Path_5" data-name="Path 5" d="M16.9,115.13c.034.286.143.714.156.87A7.219,7.219,0,0,0,16.9,115.13Z" transform="translate(-5.41 38.418)" fill="#c62b70"/>
                          <path id="Path_6" data-name="Path 6" d="M10.083,108.023c-.272-.387.36-.564-.163-1.36-.53-.952-1.054-1.822-1.557-2.719a23.813,23.813,0,0,1-1.305-2.719c-.489-.809-.306-2.447-.775-3.256-.455-1-1.326-2.753-1.917-3.9s-.938-1.577-.469.02c.775,2.379,1.523,4.3,2.3,6.118.374.925.8,1.8,1.217,2.719s.863,1.849,1.36,2.848c1.74,3.175,3.569,6.118,5.561,9.191.51.891.952,1.733,1.36,2.6-.537-1.142-1.081-2.3-1.672-3.61a14.18,14.18,0,0,0-1.7-2.583,23.713,23.713,0,0,1-2.243-3.345Z" transform="translate(-1.176 67.837)" fill="#c62b70"/>
                          <path id="Path_7" data-name="Path 7" d="M33.481,144.378l-.925-1.04A21.312,21.312,0,0,0,29.28,137.9l.224.979c.68,1.02.911,1.047.455.048a36.533,36.533,0,0,0,3.549,6.363C33.576,145.085,33.767,145,33.481,144.378Z" transform="translate(-6.178 53.473)" fill="#c62b70"/>
                          <path id="Path_8" data-name="Path 8" d="M36.309,149.969,35.5,148.8v.075l.843,1.142Z" transform="translate(-7.656 49.983)" fill="#c62b70"/>
                          <path id="Path_9" data-name="Path 9" d="M6.853,157.879C5.74,151.2,4.832,144.373,4.135,137.453c-.282-3.391-.65-6.717-.783-10.091-.094-1.622-.2-3.342-.29-5.013l-.164-5a11.808,11.808,0,0,1-.321-3.1c.128-1.027.214-2.074.258-3.131,0-1.947,0-3.894.063-5.808v-2.109c-.055-1.1-.18-.795-.313-.13q-.132,1.032-.321,2.028c.07-.373.2-1.379.321-2.028.138-1.015.238-2.051.3-3.1.008-1.855.092-3.706.251-5.532,0,2.142-.164,3.959-.243,5.532v3.245l.047.941c.086-2.206.117-4.413.258-6.6l.423-6.489.172-2.742c.086-1.622.172-3.245.305-4.591a16.459,16.459,0,0,1,.666-3.5c.094-.746.2-1.509.3-2.271l-.117.406q.076-.415.172-.811c.11-.795.2-1.622.321-2.4L5.827,72.8c.266-1.622.525-3.131.783-4.7.251-2.093.493-4.3.783-6.489,0,0,.493-1.2.783-1.736a24.3,24.3,0,0,1,.454-3.667C8.051,57.617,7.456,58.866,7,60.148c-.783,1.833-.227,5.289-1.363,7.236C6.8,65.453,6.265,62,7.049,60.164c.454-1.282,1.05-2.531,1.629-3.942a37.436,37.436,0,0,1,2.82-8.761,44.055,44.055,0,0,1-2.82,8.761,24.3,24.3,0,0,0-.454,3.667c-.29.535-.783,1.736-.783,1.736-.305,2.158-.548,4.364-.783,6.489a166.394,166.394,0,0,1,4.276-17.57c5.483-18.138,13.91-31.182,23.622-35.692a24.236,24.236,0,0,1,7.378-2.385,25.848,25.848,0,0,1,7.582.13,37.4,37.4,0,0,1,15.312,6.489,56.073,56.073,0,0,1,15.14,15.331,53.1,53.1,0,0,1,5.663,11.357,55,55,0,0,1,3,13.644A63.773,63.773,0,0,1,85,86.446,43.606,43.606,0,0,1,73.46,104.065a52.663,52.663,0,0,1-14.874,9.1,43.53,43.53,0,0,1-15.939,3.5c-4.175.13-10.1.633-15.994,0a63.886,63.886,0,0,1-15.665-3.245,10.2,10.2,0,0,0-5.483.276,2.743,2.743,0,0,0-1.566,2.466A9.291,9.291,0,0,0,5.4,120.921,19.019,19.019,0,0,0,15.445,128.5c3.948,1.493,8.835,2.6,15.978,4.332-2.444-.519-3.227-1.055-2.827-1.411a9.531,9.531,0,0,1,3.916-.681c2.068-.114,4.7-.227,7.433-.243a57.487,57.487,0,0,1,7.832.325,22.618,22.618,0,0,0,11.059-1.347,48.722,48.722,0,0,0,12.078-6.652,53.561,53.561,0,0,0,12.219-12.7,63.443,63.443,0,0,0,5.483-9.734,84.291,84.291,0,0,0,4.331-11.843,79.953,79.953,0,0,0,2.671-14.6A91.235,91.235,0,0,0,95.5,56.092a76.38,76.38,0,0,0-5-21.091,62.756,62.756,0,0,0-7.934-14.2,56.314,56.314,0,0,0-8.874-9.264,66.47,66.47,0,0,0-9.133-6.36,45.729,45.729,0,0,0-9.571-3.975,33.283,33.283,0,0,0-9.955-1.2A30.421,30.421,0,0,0,34.8,2.44,37.33,37.33,0,0,0,24.664,9.595c-.862.925-1.707,1.833-2.522,2.79a37.987,37.987,0,0,0-2.3,3.245l-1.1,1.622-1.018,1.817c-.658,1.233-1.308,2.434-1.958,3.618S14.6,25.3,14.027,26.581q-.854,1.879-1.606,3.942-1.489,3.9-2.773,8.112a187.9,187.9,0,0,0-6.517,23.67A194.35,194.35,0,0,0,0,93.6c.063-1.363.117-2.677.172-3.942s.2-2.531.3-3.667c.172-2.45.321-4.867.6-7.236.5-5.308,1.189-10.531,2.068-15.623.721-3.845.681-2.3.376.779-.18,1.622-.305,3.521-.486,5.419s-.345,3.715-.47,5.029c-.094,2.288-1.347,5.338-1.425,7.674-.188,2.45-.345,4.835-.415,7.2S.673,94.1.626,96.813c0,2.271-.666,1.9-.627,3.05A94.817,94.817,0,0,0,.446,109.6c.245,2.523.387,5.085.423,7.658,0,1.752,0,3.407,0,5.013s.078,3.245.11,4.721c.058,1.974.184,3.936.376,5.873l.533,3.748a4.657,4.657,0,0,1,.619-1.947c.125,1.849.188,4.51.376,6.343-.188-1.833-.251-4.494-.376-6.343a4.732,4.732,0,0,0-.627,2.028c1.422,9.624,3.148,19.044,5.169,28.2l.047-.178c-.538-2.64-.993-5.35-1.363-8.112-.373-2.85-.635-5.758-.783-8.7.188,2.6-.055,2.417-.493-.422,0-.795.039-1.622.078-2.4.407,2.45.877,4.867,1.214,7.268a70.9,70.9,0,0,1,.783,7.333s.493,1.979.783,2.936a3.523,3.523,0,0,1-.18,2.158q.305,1.622.634,3.245-.155-2.994-.47-5.938c-.117-1.087-.2-2.109-.258-2.839Z" transform="translate(0.002 0.011)" fill="#c62b70"/>
                          <path id="Path_10" data-name="Path 10" d="M3.694,59.9v1.162c.068-1.557.32-3.093.523-4.636A8.783,8.783,0,0,0,3.694,59.9Z" transform="translate(-1.178 20.259)" fill="#c62b70"/>
                        </g>
                      </svg>
