<svg id="Group_2" data-name="Group 2" xmlns="http://www.w3.org/2000/svg" width="64" height="64" viewBox="0 0 64 64">
                        <g id="Rectangle_4" data-name="Rectangle 4" transform="translate(0)" fill="#fff" stroke="#000" stroke-width="5">
                          <rect width="64" height="64" rx="20" stroke="none"/>
                          <rect x="2.5" y="2.5" width="59" height="59" rx="17.5" fill="none"/>
                        </g>
                        <path id="Icon_awesome-code" data-name="Icon awesome-code" d="M27.889,56.862l-6.1-1.968a1.363,1.363,0,0,1-.82-1.656L34.618.966a1.189,1.189,0,0,1,1.49-.912l6.1,1.968a1.363,1.363,0,0,1,.82,1.656L29.378,55.95a1.186,1.186,0,0,1-1.49.912Zm-11.4-12.473,4.35-5.158a1.439,1.439,0,0,0-.08-1.912L11.7,28.458l9.059-8.86a1.429,1.429,0,0,0,.08-1.912l-4.35-5.158a1.118,1.118,0,0,0-1.7-.056L.381,27.48a1.428,1.428,0,0,0,0,1.945L14.79,44.444a1.111,1.111,0,0,0,1.7-.056Zm32.717.067L63.616,29.436a1.428,1.428,0,0,0,0-1.945L49.207,12.461a1.126,1.126,0,0,0-1.7.056l-4.35,5.158a1.439,1.439,0,0,0,.08,1.912L52.3,28.458l-9.059,8.86a1.429,1.429,0,0,0-.08,1.912l4.35,5.158A1.119,1.119,0,0,0,49.207,44.455Z" transform="translate(0.002 3.435)"/>
                      </svg>