<svg xmlns="http://www.w3.org/2000/svg" width="192" height="256" viewBox="0 0 192 256">
  <g id="Swirl_selector" data-name="Swirl selector" transform="translate(44.281)" opacity="0.85">
    <path id="Path_1" data-name="Path 1" d="M21.678,123.5c-.731-1.376-1.474-2.765-2.168-4.166a19.332,19.332,0,0,1,.731,2.29,4.714,4.714,0,0,0,1.437,1.876Z" transform="translate(7.793 84.868)" fill="#a63b51"/>
    <path id="Path_2" data-name="Path 2" d="M18.055,116.389l-.353-.743L17.3,115Z" transform="translate(1.826 80.925)" fill="#a63b51"/>
    <path id="Path_3" data-name="Path 3" d="M14.82,110.21a28.745,28.745,0,0,0,1.8,3.74A37.236,37.236,0,0,0,14.82,110.21Z" transform="translate(1.365 78.255)" fill="#a63b51"/>
    <path id="Path_4" data-name="Path 4" d="M17.033,115.538c-.073-.524,0-.828.475-.134h0L16.29,113.26A18.273,18.273,0,0,1,17.033,115.538Z" transform="translate(1.638 79.97)" fill="#a63b51"/>
    <path id="Path_5" data-name="Path 5" d="M16.9,115.13c.061.512.256,1.279.28,1.559A12.937,12.937,0,0,0,16.9,115.13Z" transform="translate(1.758 81.068)" fill="#a63b51"/>
    <path id="Path_6" data-name="Path 6" d="M15.155,119.886c-.487-.694.646-1.011-.292-2.436-.95-1.705-1.888-3.264-2.789-4.872a42.67,42.67,0,0,1-2.339-4.872c-.877-1.45-.548-4.385-1.389-5.835-.816-1.791-2.375-4.933-3.435-6.992s-1.681-2.826-.84.037C5.459,99.179,6.8,102.626,8.2,105.878c.67,1.657,1.437,3.228,2.18,4.872s1.547,3.313,2.436,5.1c3.118,5.688,6.395,10.963,9.964,16.469.914,1.6,1.705,3.106,2.436,4.653-.962-2.046-1.937-4.129-3-6.468a25.409,25.409,0,0,0-3.045-4.629,42.488,42.488,0,0,1-4.02-5.993Z" transform="translate(-0.821 92.859)" fill="#a63b51"/>
    <path id="Path_7" data-name="Path 7" d="M36.808,149.508l-1.657-1.864A38.187,38.187,0,0,0,29.28,137.9q.195.853.4,1.754c1.218,1.827,1.632,1.876.816.085a65.461,65.461,0,0,0,6.358,11.4C36.978,150.775,37.319,150.629,36.808,149.508Z" transform="translate(4.965 102.642)" fill="#a63b51"/>
    <path id="Path_8" data-name="Path 8" d="M36.95,150.9l-1.45-2.1v.134l1.51,2.046Z" transform="translate(6.344 105.02)" fill="#a63b51"/>
    <path id="Path_9" data-name="Path 9" d="M13.708,240.541c-2.226-10.182-4.041-20.576-5.436-31.119-.564-5.166-1.3-10.233-1.566-15.374-.188-2.472-.392-5.092-.58-7.638L5.8,178.8a13.908,13.908,0,0,1-.642-4.721,44.846,44.846,0,0,0,.517-4.77c0-2.966,0-5.932.125-8.849v-3.213c-.11-1.681-.36-1.211-.627-.2q-.265,1.573-.642,3.09c.141-.569.392-2.1.642-3.09a46.637,46.637,0,0,0,.6-4.721,78.431,78.431,0,0,1,.5-8.429c0,3.263-.329,6.031-.486,8.429v4.943l.094,1.434c.172-3.362.235-6.723.517-10.06l.846-9.887.345-4.177c.172-2.472.345-4.943.611-7a19.873,19.873,0,0,1,1.332-5.339c.188-1.137.392-2.3.6-3.46l-.235.618q.152-.632.345-1.236c.219-1.211.392-2.472.642-3.658l.783-3.584c.533-2.472,1.05-4.77,1.566-7.168.5-3.189.987-6.55,1.566-9.887,0,0,.987-1.829,1.566-2.645a28.692,28.692,0,0,1,.909-5.586c-1.159,2.15-2.35,4.054-3.258,6.006-1.566,2.793-.454,8.058-2.726,11.024,2.318-2.941,1.253-8.206,2.82-11,.909-1.953,2.1-3.856,3.258-6.006A48.085,48.085,0,0,1,23,72.314a56.542,56.542,0,0,1-5.639,13.347,28.692,28.692,0,0,0-.909,5.586c-.58.816-1.566,2.645-1.566,2.645-.611,3.287-1.1,6.649-1.566,9.887A205.068,205.068,0,0,1,21.869,77.01C32.835,49.376,49.69,29.5,69.114,22.632A59.753,59.753,0,0,1,83.87,19a67.7,67.7,0,0,1,15.164.2,88.629,88.629,0,0,1,30.625,9.887c10.965,5.833,21.523,13.2,30.28,23.358a75.58,75.58,0,0,1,11.326,17.3,67.257,67.257,0,0,1,6,20.787c1.77,14.509-1.566,29.34-7.253,41.179a68.38,68.38,0,0,1-23.09,26.843,115.143,115.143,0,0,1-29.747,13.866A110.616,110.616,0,0,1,85.3,177.759c-8.349.2-20.208.964-31.987,0a163.162,163.162,0,0,1-31.33-4.943,26.544,26.544,0,0,0-10.965.42,4.251,4.251,0,0,0-3.133,3.757c-.235,3.09,2.444,6.8,2.929,7.242C16.919,190.908,23,193.5,30.892,195.778s17.67,3.955,31.956,6.6c-4.887-.791-6.454-1.607-5.655-2.15a24.456,24.456,0,0,1,7.832-1.038c4.136-.173,9.4-.346,14.866-.371a150.694,150.694,0,0,1,15.665.494,58.468,58.468,0,0,0,22.119-2.052,109.549,109.549,0,0,0,24.155-10.134,97.385,97.385,0,0,0,24.437-19.354,93.8,93.8,0,0,0,10.965-14.83A110.731,110.731,0,0,0,185.9,134.9a96.23,96.23,0,0,0,5.342-22.246A106.078,106.078,0,0,0,191,85.464a94.188,94.188,0,0,0-10.01-32.133A92.663,92.663,0,0,0,165.124,31.7,102.148,102.148,0,0,0,147.375,17.59,139.882,139.882,0,0,0,129.11,7.9a109.022,109.022,0,0,0-19.142-6.056A86.394,86.394,0,0,0,90.058.016,76.978,76.978,0,0,0,69.6,3.723a78.2,78.2,0,0,0-20.27,10.9c-1.723,1.409-3.415,2.793-5.044,4.251a61.053,61.053,0,0,0-4.605,4.943L37.471,26.29l-2.036,2.768c-1.316,1.879-2.616,3.708-3.916,5.512S29.2,38.55,28.057,40.5q-1.708,2.863-3.211,6.006Q21.868,52.453,19.3,58.868C14.1,70.757,8.883,84.055,6.267,94.931A228.271,228.271,0,0,0,0,142.61c.125-2.076.235-4.078.345-6.006s.407-3.856.6-5.586c.345-3.732.642-7.415,1.191-11.024a241.227,241.227,0,0,1,4.136-23.8c1.441-5.858,1.363-3.51.752,1.186-.36,2.472-.611,5.364-.971,8.256s-.689,5.66-.94,7.662c-.188,3.485-2.694,8.132-2.851,11.691-.376,3.732-.689,7.366-.83,10.975s-.078,7.415-.172,11.543c0,3.46-1.332,2.892-1.253,4.647a110.349,110.349,0,0,0,.893,14.83,108.251,108.251,0,0,1,.846,11.667c0,2.669,0,5.191,0,7.638s.157,4.943.219,7.193c.116,3.007.367,6,.752,8.948l1.065,5.71a6.007,6.007,0,0,1,1.238-2.966c.251,2.818.376,6.871.752,9.665-.376-2.793-.5-6.847-.752-9.665a6.077,6.077,0,0,0-1.253,3.09c2.843,14.663,6.3,29.014,10.339,42.959l.094-.272c-1.076-4.023-1.986-8.151-2.726-12.359A128.083,128.083,0,0,1,9.9,225.34c.376,3.955-.11,3.683-.987-.643,0-1.211.078-2.472.157-3.658.815,3.732,1.754,7.415,2.428,11.073a83.338,83.338,0,0,1,1.566,11.172s.987,3.015,1.566,4.474c.36,2.472-.11,2.472-.36,3.287q.611,2.472,1.269,4.943-.309-4.561-.94-9.047c-.235-1.656-.392-3.213-.517-4.326Z" transform="translate(-44.279 0.011)" fill="#a63b51"/>
    <path id="Path_10" data-name="Path 10" d="M3.7,62.654v2.083c.122-2.789.573-5.542.938-8.307A15.738,15.738,0,0,0,3.7,62.654Z" transform="translate(-0.651 40.801)" fill="#a63b51"/>
  </g>
</svg>
