<svg xmlns="http://www.w3.org/2000/svg" width="64" height="64" viewBox="0 0 64 64">
  <path id="Icon_awesome-arrow-circle-right" data-name="Icon awesome-arrow-circle-right" d="M32.562.563a32,32,0,1,1-32,32A31.994,31.994,0,0,1,32.562.563ZM28.833,19.092l9.742,9.342H15.014a3.089,3.089,0,0,0-3.1,3.1v2.065a3.089,3.089,0,0,0,3.1,3.1H38.575l-9.742,9.342a3.1,3.1,0,0,0-.052,4.426L30.2,51.866a3.084,3.084,0,0,0,4.374,0L51.7,34.756a3.084,3.084,0,0,0,0-4.374L34.575,13.246a3.084,3.084,0,0,0-4.374,0l-1.419,1.406A3.116,3.116,0,0,0,28.833,19.092Z" transform="translate(64.563 -0.563) rotate(90)" fill="#a63b51"/>
</svg>
